<?xml version="1.0" encoding="utf-8"?>
<!-- Generator: Adobe Illustrator 29.7.1, SVG Export Plug-In . SVG Version: 9.03 Build 0)  -->
<svg version="1.0" id="Layer_1" xmlns="http://www.w3.org/2000/svg" xmlns:xlink="http://www.w3.org/1999/xlink" x="0px" y="0px"
	 viewBox="0 0 1350 651" style="enable-background:new 0 0 1350 651;" xml:space="preserve">
<style type="text/css">
	.st0{fill:#EEFF01;}
</style>
<g transform="translate(0.000000,651.000000) scale(0.100000,-0.100000)">
	<path class="st0" d="M3870,6420c-91-7-113-12-165-40c-108-58-204-149-314-295c-144-190-322-523-416-775c-7-19-21-71-30-116
		c-15-67-15-87-5-118c27-82,93-128,200-140c36-4,253-11,482-15c400-6,419-7,445-27c36-27,40-65,14-148c-60-193-196-302-353-281
		c-97,14-119,69-77,188c17,49,19,61,8,68c-17,11-970,12-985,1c-12-8-234-304-282-375c-49-74-118-224-136-298c-9-36-16-96-16-133
		c0-127,54-186,200-217c53-12,238-14,1035-13c857,2,979,4,1049,18c99,21,177,58,234,110c73,67,96,114,137,276c9,36,23,88,30,115
		c15,54,35,132,88,350c28,113,39,160,47,195c5,19,16,67,25,105c9,39,23,95,30,125s18,78,25,105c32,131,39,166,51,241
		c15,98,8,128-38,171c-78,74-124,81-583,92c-314,7-371,11-408,26c-23,9-47,26-52,36c-29,53,5,122,79,162l49,27h606h606v-33
		c0-18-6-53-14-78c-7-24-21-80-31-124s-23-100-30-125s-20-81-30-125c-9-44-24-100-31-124c-8-25-14-53-14-64s-6-43-14-71
		s-22-82-31-121c-9-38-22-95-30-125c-27-111-38-156-45-190c-28-121-49-211-75-320c-8-30-21-86-30-125c-20-86-39-165-55-225
		c-6-25-15-63-19-85s-13-59-19-82c-34-122-34-126-20-134c7-5,444-9,970-9h957l15,22c9,12,16,30,16,40c0,9,6,32,14,50
		c7,18,21,60,31,93c9,33,23,76,30,95c26,74,37,106,47,140c17,58,21,59,269,60c184,0,229-3,238-14c7-8,17-59,22-113s17-158,26-231
		c15-119,19-133,37-138c12-2,226-3,476-2c443,3,455,4,459,23c3,20-20,145-45,231c-8,28-14,61-14,74s-6,46-14,74s-22,87-31,131
		c-34,159-47,221-60,275c-13,52-23,98-61,270c-9,41-22,100-29,130c-13,56-33,142-61,273c-8,39-20,92-26,117s-14,65-19,90
		c-4,25-18,88-30,140s-25,115-29,140s-13,68-20,95c-13,55-29,128-55,250c-9,44-23,103-31,131s-14,62-14,76s-6,43-14,64
		c-7,22-16,60-20,85c-13,86,15,82-495,78c-382-4-453-7-465-19c-13-14-32-58-122-277c-19-49-39-97-43-108c-5-11-22-54-39-95
		c-16-41-51-126-76-187c-25-62-66-162-91-223c-25-60-65-159-90-220c-25-60-65-159-90-220c-25-60-66-161-91-222c-25-62-51-126-59-143
		c-7-16-27-66-45-110c-17-44-38-93-45-110c-7-16-27-66-45-110c-17-44-38-92-46-107c-8-14-14-31-14-37s-13-39-29-73
		c-16-35-32-72-35-83c-6-17-9-17-15-5c-5,8-3,49,4,90c8,41,21,127,30,190c35,250,47,328,61,405c8,44,14,94,14,110c0,17,6,66,14,110
		c14,76,25,151,61,415c9,63,22,156,30,205c8,50,17,112,20,139c4,27,11,60,16,73l9,23h190h190l20,43c10,23,40,96,65,162
		c26,66,67,167,91,225c62,147,62,146-38,153C6724,6432,4000,6429,3870,6420z M7455,5173c3-43,12-119,20-169s15-119,15-153v-61h-104
		c-58,0-108,4-111,10c-3,5,15,69,40,142c26,73,51,147,55,163c8,29,23,75,41,123c5,12,15,22,23,22C7445,5250,7450,5230,7455,5173z"/>
	<path class="st0" d="M8091,6416c-7-8-9-26-6-43c9-43,35-152,50-213c7-30,21-91,31-135c9-44,23-100,30-124c8-25,14-53,14-64
		s6-43,14-71c14-52,32-123,46-186c31-137,50-214,76-315c7-27,20-81,29-120c9-38,22-95,30-125c7-30,21-91,30-135c10-44,23-102,30-130
		c7-27,20-86,30-130c9-44,23-105,30-135c17-67,38-161,60-260c9-41,23-100,30-130c8-30,21-89,30-130s23-100,30-130c8-30,17-72,20-93
		c11-70-7-67,546-65l494,3l-1,35c-1,19-9,53-17,75c-36,91-60,154-82,220c-13,39-34,95-45,125c-12,30-25,66-30,80c-4,14-12,36-18,50
		s-25,66-42,115c-17,50-38,108-47,130c-8,22-21,57-29,78c-31,83-45,119-61,157c-10,26-13,44-7,50c10,10,63-55,269-325
		c178-234,531-691,581-753l35-42l551,2c372,2,552,6,555,13c2,6-5,20-15,30c-10,11-58,65-107,120s-92,102-95,105s-48,52-100,110
		c-112,124-175,195-459,509c-165,184-208,237-199,248c6,7,34,25,62,39c62,31,81,48,114,99c22,34,26,51,26,115c0,97-17,152-102,330
		c-37,78-107,201-185,324c-17,27-100,147-187,272c-85,122-199,255-265,311c-25,21-74,53-108,72c-61,33-64,34-232,42
		c-93,4-445,8-781,8C8200,6430,8101,6428,8091,6416z M9306,5812c47-24,68-51,84-112c14-53,0-94-41-115c-28-15-190-21-235-9
		c-20,5-43,47-73,134c-37,105-34,111,41,121C9170,5843,9261,5835,9306,5812z"/>
	<path class="st0" d="M2040,3543c-20-3-41-13-50-26c-21-28-68-107-79-133c-5-11-27-50-48-85c-22-35-43-71-47-79s-12-24-19-35
		s-37-63-67-115s-60-104-67-115s-15-27-19-35c-10-19-91-160-104-180c-6-8-13-22-17-30s-33-59-65-113s-58-100-58-102s-27-49-60-105
		s-60-103-60-105s-34-60-75-130c-41-69-75-128-75-130c0-4-114-200-130-225c-6-8-13-22-17-30s-40-71-80-139c-40-67-73-124-73-126
		s-27-49-60-105s-60-103-60-105s-34-61-75-130c-41-70-75-129-75-131s-27-49-60-105c-33-55-60-103-60-105s-20-38-45-80
		c-25-41-45-77-45-80c0-2-27-49-60-105c-33-55-60-102-60-104s-34-60-75-129S80,193,80,185c0-13,76-15,652-13l652,3l49,60
		c27,33,128,159,225,280s178,222,182,225c5,4,163,202,654,814c145,181,179,218,186,205c4-6,2-32-6-58c-7-25-20-82-29-126
		s-23-111-31-150c-8-38-21-101-29-140c-8-38-21-101-29-140c-8-38-22-106-31-150s-23-107-30-140s-21-98-30-145s-22-112-30-145
		c-7-33-20-96-29-140s-24-112-33-152c-9-39-13-78-10-87c6-14,64-16,581-16h574l34,52c35,53,131,208,156,251c7,12,49,78,92,147
		s118,189,167,268c48,79,95,154,103,167s42,67,75,120s67,107,75,120s55,88,103,167c49,79,124,199,168,268c43,69,83,134,89,145
		s53,88,104,170c52,83,134,214,183,293c48,78,96,155,105,170c10,15,22,36,28,47c5,11,39,65,75,120s69,109,75,120s18,32,28,47
		c9,15,51,82,92,148c41,67,82,132,90,145s42,67,75,120s68,109,77,123c10,15,21,34,25,42s20,34,36,58c52,77,70,74-402,70
		c-392-3-420-4-439-22c-12-10-54-65-94-122c-40-58-101-144-135-192c-85-118-180-253-228-323c-22-32-84-118-137-191
		c-54-73-130-179-170-234c-204-285-212-295-220-281c-4,8-1,34,6,58c8,24,21,80,31,124c9,44,23,103,31,131s14,59,14,69s6,41,14,69
		s22,84,30,124c29,132,48,216,61,272c7,30,20,93,30,140c9,47,23,110,30,140c8,30,21,85,30,121c9,37,15,78,13,90l-3,24l-265,3
		c-146,2-293,0-327-3l-61-6l-139-152c-76-84-140-154-144-157c-3-3-52-57-109-120s-106-117-109-120c-4-3-69-75-146-160
		c-76-85-146-162-154-171c-21-22-94-101-281-310c-47-51-102-112-123-133c-37-39-57-44-39-9c5,10,95,189,199,398s238,475,298,590
		c163,317,165,321,165,339c0,14-34,16-362,14C2238,3548,2059,3545,2040,3543z"/>
	<path class="st0" d="M5768,3533c-18-22-71-102-81-123c-4-8-15-27-25-42c-24-38-194-314-210-341c-7-12-21-34-30-49s-64-104-122-198
		s-112-182-120-195s-55-88-103-167c-49-79-131-210-183-293c-51-82-98-159-104-170s-18-32-28-47c-9-15-57-93-107-173
		c-49-80-97-157-105-170s-55-89-103-167c-49-79-131-210-182-293c-52-82-98-157-101-165c-4-8-26-44-49-80s-66-105-96-153
		s-62-100-71-115s-23-37-30-49c-15-25-154-250-180-291c-27-42-37-66-29-75c4-4,261-6,571-5l563,3l36,50c19,28,113,167,209,310
		c95,143,180,268,188,278c13,15,40,17,303,17c219,0,291-3,299-12c7-9,7-29,2-58c-5-25-9-90-10-145c0-55-7-171-15-258s-12-164-8-172
		c4-13,79-15,543-15c418,0,540,3,547,13c6,7,6,176,1,447c-5,239-12,991-16,1670l-7,1235l-50,7c-27,3-282,7-566,7
		C5819,3550,5782,3549,5768,3533z M5950,1808c-6-100-15-217-18-258l-7-75l-137-3c-122-2-138-1-138,14c0,16,46,105,101,194
		c16,26,29,51,29,55c0,5,6,16,14,24c7,9,26,39,41,66c76,140,107,187,117,177C5959,1995,5958,1931,5950,1808z"/>
	<path class="st0" d="M7047,3544c-10-10-8-716,3-1164c5-206,15-728,21-1160s14-843,18-915l6-130l594-3c331-1,599,2,604,7s2,61-7,132
		c-9,68-23,185-31,259c-9,74-22,187-30,250s-22,178-31,255s-22,183-30,236c-17,117-18,192-3,187c9-3,55-74,76-118
		c8-18,89-158,103-180c6-8,13-22,17-30s26-48,50-88s43-75,43-77s20-39,45-81c25-41,45-77,45-79s20-38,45-79c25-42,45-78,45-80
		c0-3,27-50,60-106s60-103,60-105c0-3,79-142,100-175c5-8,19-35,32-59c12-23,32-49,43-57c16-12,125-14,637-14c401,0,619,4,623,10
		c3,6-18,44-47,85c-29,42-73,103-97,138c-24,34-74,105-112,157s-96,133-129,180s-89,124-123,172s-99,140-144,205s-111,159-146,208
		c-35,50-85,122-112,160c-26,39-54,77-62,86c-28,33-16,45,65,58c79,13,180,56,220,94c12,11,32,40,43,62c19,38,20,55,16,201
		c-2,87-7,170-11,184c-7,25-7,25,9,5c10-11,24-36,32-55c54-129,101-206,163-269c98-100,208-157,360-188c63-13,121-14,365-7
		c373,10,480,9,546-5c159-36,301-123,366-225c28-43,63-155,63-199c0-17-12-41-34-65l-34-37h-119c-107,0-122,2-158,24
		c-77,47-125,118-169,246l-21,60l-240,6c-326,8-739,9-800,1c-48-7-50-8-47-37c2-17,9-48,16-70c22-67,38-121,92-310
		c9-33,22-78,29-100c6-22,19-65,28-95c48-166,78-268,88-295c6-16,14-43,19-60c26-99,126-216,230-267c108-52,100-52,1310-56
		c1035-3,1131-2,1200,14c149,34,239,97,271,191c23,65,23,98-3,174c-21,62-578,1178-628,1259c-5,8-31,51-57,95
		c-142,243-318,416-496,488c-51,21-68,22-657,27c-600,5-605,5-653,27c-98,46-176,158-185,265c-4,56-4,57,29,78c28,18,45,21,104,17
		c121-7,216-67,276-175l26-47l566-3c535-2,567-1,567,15c0,10-6,30-14,44c-26,50-110,203-172,314c-13,22-29,51-37,65
		c-7,14-33,61-57,105s-49,89-54,100c-33,63-113,169-152,204c-25,22-80,55-122,73l-77,33h-950h-950l-38-24c-21-12-49-39-62-59
		c-23-33-25-46-25-142c1-58,5-125,11-150c19-89,21-117,10-124c-6-4-14,1-17,11c-12,38-94,194-130,250c-53,81-170,195-229,224l-50,24
		l-915,3C7467,3550,7052,3548,7047,3544z M8300,2760c62-32,91-84,92-165c0-62-2-69-28-90c-43-34-129-49-241-42c-104,7-123,16-123,56
		c0,14-8,73-17,129c-23,135-26,132,149,132C8241,2780,8267,2777,8300,2760z"/>
</g>
</svg>
